<?xml version="1.0" standalone="no"?>
<!DOCTYPE svg PUBLIC "-//W3C//DTD SVG 20010904//EN"
 "http://www.w3.org/TR/2001/REC-SVG-20010904/DTD/svg10.dtd">
<svg version="1.0" xmlns="http://www.w3.org/2000/svg"
 width="1024.000000pt" height="1024.000000pt" viewBox="0 0 1024.000000 1024.000000"
 preserveAspectRatio="xMidYMid meet">
<metadata>
Created by potrace 1.14, written by Peter Selinger 2001-2017
</metadata>
<g transform="translate(0.000000,1024.000000) scale(0.100000,-0.100000)"
fill="#000000" stroke="none">
<path d="M1990 10069 c0 -6 -36 -16 -90 -25 -33 -6 -46 -10 -57 -17 -8 -5 -13
-3 -13 5 0 10 -2 10 -9 -1 -5 -8 -18 -12 -29 -9 -11 3 -26 2 -33 -3 -8 -4 -20
-3 -28 4 -12 9 -13 9 -7 0 5 -9 -1 -13 -21 -13 -15 0 -39 -9 -53 -20 -14 -11
-32 -20 -41 -20 -8 0 -20 -5 -27 -12 -9 -9 -12 -9 -12 3 0 12 -2 12 -10 -1 -5
-8 -10 -11 -10 -6 0 5 -9 -3 -21 -18 -11 -14 -24 -24 -27 -22 -4 2 -25 -4 -47
-14 -22 -11 -46 -19 -53 -20 -7 0 -11 -4 -7 -9 3 -6 -4 -8 -15 -6 -11 2 -20 0
-20 -5 0 -5 -9 -7 -20 -5 -13 2 -20 -2 -20 -11 0 -8 -4 -13 -9 -10 -5 4 -11 3
-13 -2 -1 -4 -22 -17 -45 -29 -23 -11 -40 -16 -37 -11 4 6 -3 5 -15 -1 -11 -7
-21 -16 -21 -21 0 -5 -17 -17 -37 -27 -21 -9 -41 -21 -44 -26 -3 -5 -9 -8 -13
-8 -20 3 -26 0 -21 -9 3 -6 -1 -7 -9 -4 -9 4 -18 -1 -22 -10 -3 -9 -10 -16
-15 -16 -14 0 -93 -52 -102 -68 -18 -27 -84 -92 -95 -92 -7 0 -12 -4 -12 -10
0 -5 5 -10 12 -10 7 0 -7 -14 -30 -31 -23 -17 -42 -35 -42 -40 0 -6 -5 -7 -10
-4 -6 3 -10 2 -10 -2 0 -5 -16 -15 -36 -22 -19 -7 -33 -15 -30 -18 3 -3 -2
-12 -10 -20 -8 -8 -12 -19 -9 -24 4 -5 1 -9 -4 -9 -6 0 -11 -7 -11 -15 0 -8
-6 -12 -14 -9 -7 3 -16 -2 -20 -11 -3 -9 -11 -13 -17 -9 -8 4 -9 3 -5 -4 7
-12 0 -23 -40 -65 -38 -40 -66 -87 -60 -102 3 -8 0 -14 -7 -12 -7 1 -11 -4 -9
-10 1 -7 -3 -13 -9 -13 -5 0 -7 -5 -4 -10 3 -6 -1 -13 -9 -16 -9 -3 -14 -10
-11 -15 3 -4 -4 -13 -16 -19 -11 -7 -18 -14 -15 -17 3 -4 1 -12 -5 -20 -6 -7
-9 -13 -6 -13 9 0 -30 -87 -52 -119 -10 -14 -26 -50 -36 -79 -9 -29 -24 -56
-32 -59 -9 -4 -11 -8 -4 -12 7 -5 6 -16 -4 -34 -10 -20 -11 -27 -2 -27 8 0 9
-2 1 -8 -6 -4 -11 -14 -12 -22 -1 -31 -14 -75 -24 -87 -7 -9 -7 -13 1 -13 8 0
8 -5 1 -17 -11 -19 -33 -73 -34 -85 -1 -3 -4 -9 -8 -13 -4 -4 -4 -13 -1 -21 3
-8 0 -14 -6 -14 -6 0 -8 -6 -5 -14 3 -8 1 -23 -5 -33 -5 -11 -6 -25 -1 -33 6
-9 5 -17 -3 -22 -9 -6 -9 -8 1 -8 9 0 10 -5 3 -18 -6 -11 -6 -24 -1 -32 6 -9
4 -18 -3 -23 -9 -7 -9 -10 0 -14 9 -3 10 -10 3 -24 -8 -13 -7 -19 0 -19 7 0 8
-6 1 -18 -6 -11 -6 -24 0 -35 7 -12 6 -17 -2 -17 -8 0 -9 -3 0 -13 6 -8 8 -16
5 -20 -10 -9 -11 -68 -2 -73 5 -3 4 -12 -2 -19 -6 -7 -7 -16 -2 -19 9 -6 8
-73 -2 -83 -3 -3 -1 -14 5 -24 7 -14 6 -19 -3 -19 -10 0 -10 -2 -1 -8 8 -5 9
-13 3 -22 -5 -8 -5 -21 1 -31 6 -12 5 -19 -4 -22 -8 -4 -8 -8 -2 -14 14 -11
17 -33 5 -33 -7 0 -7 -6 0 -19 7 -14 6 -21 -3 -24 -9 -4 -9 -6 1 -6 10 -1 10
-6 2 -21 -6 -11 -7 -20 -2 -20 5 0 9 -7 9 -15 0 -8 -4 -15 -9 -15 -5 0 -4 -9
2 -20 8 -15 8 -20 -1 -20 -8 0 -9 -4 0 -13 8 -10 7 -17 -1 -25 -7 -7 -8 -12
-2 -12 5 0 10 -9 10 -20 0 -11 -4 -20 -9 -20 -5 0 -4 -6 2 -14 9 -10 9 -20 2
-33 -6 -11 -6 -25 -1 -33 6 -9 5 -17 -3 -22 -9 -6 -9 -8 1 -8 9 0 10 -5 3 -18
-6 -11 -6 -24 -1 -32 6 -9 4 -18 -3 -23 -9 -7 -9 -10 0 -14 9 -3 10 -10 3 -24
-8 -13 -7 -19 0 -19 7 0 8 -6 1 -18 -6 -11 -6 -24 0 -35 7 -12 6 -17 -2 -17
-8 0 -9 -3 0 -13 6 -8 8 -16 5 -20 -10 -9 -11 -68 -2 -73 5 -3 4 -12 -2 -19
-6 -7 -7 -16 -2 -19 9 -6 8 -73 -2 -83 -3 -3 -1 -14 5 -24 7 -14 6 -19 -3 -19
-10 0 -10 -2 -1 -8 8 -5 9 -13 3 -22 -5 -8 -5 -21 1 -31 6 -12 5 -19 -4 -22
-8 -4 -8 -8 -2 -14 14 -11 17 -33 5 -33 -7 0 -7 -6 0 -19 7 -14 6 -21 -3 -24
-9 -4 -9 -6 1 -6 10 -1 10 -6 2 -21 -6 -11 -7 -20 -2 -20 5 0 9 -7 9 -15 0 -8
-4 -15 -9 -15 -5 0 -4 -9 2 -20 8 -15 8 -20 -2 -20 -9 0 -9 -3 0 -12 8 -8 9
-15 1 -25 -7 -7 -7 -13 -2 -13 5 0 9 -9 9 -20 0 -11 -4 -20 -9 -20 -5 0 -4 -6
2 -14 9 -10 9 -20 2 -33 -6 -11 -6 -25 -1 -33 6 -9 5 -17 -3 -22 -9 -6 -9 -8
1 -8 9 0 10 -5 3 -18 -6 -11 -6 -24 -1 -32 6 -9 4 -18 -3 -23 -9 -7 -9 -10 0
-14 9 -3 10 -10 3 -24 -8 -13 -7 -19 0 -19 7 0 8 -6 1 -18 -6 -11 -6 -24 0
-35 7 -12 6 -17 -2 -17 -8 0 -9 -3 0 -13 6 -8 8 -16 5 -20 -10 -9 -11 -68 -2
-73 5 -3 4 -12 -2 -19 -6 -7 -7 -16 -2 -19 9 -6 8 -73 -2 -83 -3 -3 -1 -14 5
-24 7 -14 6 -19 -3 -19 -10 0 -10 -2 -1 -8 8 -5 9 -13 3 -22 -5 -8 -5 -21 1
-31 6 -12 5 -19 -4 -22 -8 -4 -8 -8 -2 -14 14 -11 17 -33 5 -33 -7 0 -7 -6 0
-19 7 -14 6 -21 -3 -24 -9 -4 -9 -6 1 -6 10 -1 10 -6 2 -21 -6 -11 -7 -20 -2
-20 5 0 9 -7 9 -15 0 -8 -4 -15 -9 -15 -5 0 -4 -9 2 -20 8 -15 8 -20 -1 -20
-8 0 -9 -4 0 -13 8 -10 7 -17 -1 -25 -7 -7 -8 -12 -2 -12 5 0 10 -9 10 -20 0
-11 -4 -20 -9 -20 -5 0 -4 -6 2 -14 9 -10 9 -20 2 -33 -6 -11 -6 -25 -1 -33 6
-9 5 -17 -3 -22 -9 -6 -9 -8 1 -8 9 0 10 -5 3 -18 -6 -11 -6 -24 -1 -32 6 -9
4 -18 -3 -23 -9 -7 -9 -10 0 -14 9 -3 10 -10 3 -24 -8 -13 -7 -19 0 -19 7 0 8
-6 1 -18 -6 -11 -6 -24 0 -35 7 -12 6 -17 -2 -17 -8 0 -9 -3 0 -13 6 -8 8 -16
5 -20 -10 -9 -11 -68 -2 -73 5 -3 4 -12 -2 -19 -6 -7 -7 -16 -2 -19 9 -6 8
-73 -2 -83 -3 -3 -1 -14 5 -24 7 -14 6 -19 -3 -19 -10 0 -10 -2 -1 -8 8 -5 9
-13 3 -22 -5 -8 -5 -21 1 -31 6 -12 5 -19 -4 -22 -8 -4 -8 -8 -2 -14 14 -11
17 -33 5 -33 -7 0 -7 -6 0 -19 7 -14 6 -21 -3 -24 -9 -4 -9 -6 1 -6 10 -1 10
-6 2 -21 -6 -11 -7 -20 -2 -20 5 0 9 -7 9 -15 0 -8 -4 -15 -9 -15 -5 0 -4 -9
2 -20 8 -15 8 -20 -1 -20 -8 0 -9 -4 0 -13 8 -10 7 -17 -1 -25 -7 -7 -8 -12
-2 -12 5 0 10 -9 10 -20 0 -11 -4 -20 -9 -20 -5 0 -4 -6 2 -14 9 -10 9 -20 2
-33 -6 -11 -6 -25 -1 -33 6 -9 5 -17 -3 -22 -9 -6 -9 -8 1 -8 9 0 10 -5 3 -18
-6 -11 -6 -24 -1 -32 6 -9 4 -18 -3 -23 -9 -7 -9 -10 0 -14 9 -3 10 -10 3 -24
-8 -13 -7 -19 0 -19 7 0 8 -6 1 -18 -6 -11 -6 -24 0 -35 7 -12 6 -17 -2 -17
-8 0 -9 -3 0 -13 6 -8 8 -16 5 -20 -10 -9 -11 -68 -2 -73 5 -3 4 -12 -2 -19
-6 -7 -7 -16 -2 -19 9 -6 8 -73 -2 -83 -3 -3 -1 -14 5 -24 7 -14 6 -19 -3 -19
-10 0 -10 -2 -1 -8 8 -5 9 -13 3 -22 -5 -8 -5 -21 1 -31 6 -12 5 -19 -4 -22
-8 -4 -8 -8 -2 -14 14 -11 17 -33 5 -33 -7 0 -7 -6 0 -19 7 -14 6 -21 -3 -24
-9 -4 -9 -6 1 -6 10 -1 10 -6 2 -21 -6 -11 -7 -20 -2 -20 5 0 9 -7 9 -15 0 -8
-4 -15 -9 -15 -5 0 -4 -9 2 -20 8 -15 8 -20 -1 -20 -8 0 -9 -4 0 -13 8 -10 7
-17 -1 -25 -7 -7 -8 -12 -2 -12 5 0 10 -9 10 -20 0 -11 -4 -20 -9 -20 -5 0 -4
-6 2 -14 9 -10 9 -20 2 -33 -6 -11 -6 -25 -1 -33 6 -9 5 -17 -3 -22 -9 -6 -9
-8 1 -8 9 0 10 -5 3 -18 -6 -11 -6 -24 -1 -32 6 -9 4 -18 -3 -23 -9 -7 -9 -10
0 -14 9 -3 10 -10 3 -24 -8 -13 -7 -19 0 -19 7 0 8 -6 1 -18 -6 -11 -6 -24 0
-35 7 -12 6 -17 -2 -17 -8 0 -9 -3 0 -13 6 -8 8 -16 5 -20 -10 -9 -11 -68 -2
-73 5 -3 4 -12 -2 -19 -6 -7 -7 -16 -2 -19 9 -6 8 -73 -2 -83 -3 -3 -1 -14 4
-24 7 -12 6 -19 -3 -22 -9 -4 -9 -6 1 -6 9 -1 10 -6 3 -19 -6 -11 -6 -24 -1
-32 6 -9 5 -17 -3 -22 -8 -5 -8 -11 -2 -16 14 -10 17 -32 5 -32 -7 0 -7 -6 0
-19 7 -14 6 -21 -3 -24 -9 -4 -9 -6 1 -6 10 -1 10 -6 2 -21 -6 -11 -7 -20 -2
-20 5 0 9 -7 9 -15 0 -8 -4 -15 -9 -15 -5 0 -4 -9 2 -20 8 -15 8 -20 -1 -20
-8 0 -9 -4 0 -13 8 -10 7 -17 -1 -25 -7 -7 -8 -12 -2 -12 5 0 10 -9 10 -20 0
-11 -4 -20 -9 -20 -5 0 -4 -6 2 -14 9 -10 9 -20 2 -33 -6 -11 -6 -25 -1 -33 6
-9 5 -17 -3 -22 -9 -6 -9 -8 1 -8 9 0 10 -5 3 -18 -6 -11 -6 -24 -1 -32 6 -9
4 -18 -3 -23 -9 -7 -9 -10 0 -14 9 -3 10 -10 3 -24 -8 -13 -7 -19 0 -19 7 0 8
-6 1 -18 -6 -11 -6 -24 0 -35 7 -12 6 -17 -2 -17 -8 0 -9 -3 0 -13 6 -8 8 -16
5 -20 -10 -9 -11 -68 -2 -73 5 -3 4 -12 -2 -19 -6 -7 -7 -16 -2 -19 9 -6 8
-73 -2 -83 -3 -3 -1 -14 5 -24 7 -14 6 -19 -3 -19 -10 0 -10 -2 -1 -8 8 -5 9
-13 3 -22 -5 -8 -5 -21 1 -31 6 -12 5 -19 -4 -22 -9 -4 -9 -8 1 -15 18 -12 18
-13 3 -39 -6 -13 -7 -23 -2 -23 10 0 9 -19 -2 -37 -5 -8 -3 -13 3 -13 6 0 9
-4 5 -9 -3 -5 -1 -12 5 -16 5 -3 10 -11 10 -16 0 -6 -5 -7 -11 -3 -6 3 -3 -5
6 -20 10 -15 15 -29 11 -33 -3 -3 0 -13 6 -21 7 -7 14 -24 15 -35 2 -12 8 -26
13 -31 6 -6 10 -23 10 -39 0 -15 4 -26 9 -22 6 3 8 -3 6 -15 -2 -11 1 -22 6
-25 5 -4 7 -11 4 -16 -4 -5 -2 -9 3 -9 12 0 32 -46 32 -74 0 -12 8 -31 18 -42
11 -11 18 -27 16 -37 -1 -9 2 -15 7 -12 4 3 12 -7 15 -22 4 -15 15 -43 25 -60
10 -18 16 -33 14 -33 -3 0 4 -9 16 -21 11 -11 19 -25 16 -32 -3 -11 2 -21 35
-57 9 -10 14 -21 11 -24 -3 -3 6 -11 21 -17 15 -7 26 -20 26 -31 0 -10 11 -29
24 -41 14 -13 28 -35 31 -49 4 -14 18 -31 31 -37 14 -6 23 -15 19 -20 -3 -5 4
-12 15 -16 11 -3 20 -13 20 -21 0 -8 7 -14 16 -14 8 0 13 -3 11 -7 -3 -5 10
-19 29 -33 18 -14 32 -31 29 -37 -2 -7 -1 -12 3 -12 17 2 51 -14 46 -22 -3 -5
-1 -9 3 -9 13 0 139 -123 146 -142 4 -10 16 -18 27 -18 12 0 19 -3 17 -8 -3
-4 4 -16 14 -26 12 -12 19 -15 19 -7 0 9 4 8 15 -3 8 -8 15 -20 15 -27 0 -7 3
-9 7 -6 8 8 34 -13 28 -22 -4 -8 4 -10 49 -14 13 -1 22 -6 20 -12 -5 -12 45
-37 57 -29 5 3 9 0 9 -6 0 -7 7 -10 15 -6 8 3 19 -2 24 -12 5 -9 13 -16 18
-15 14 4 43 -8 43 -18 0 -5 9 -9 19 -9 11 0 23 -5 26 -10 4 -6 10 -8 15 -5 4
3 11 -2 14 -10 3 -8 9 -14 13 -13 13 4 73 -24 73 -34 0 -5 4 -6 10 -3 5 3 10
1 10 -6 0 -7 3 -10 6 -7 3 4 21 0 40 -8 19 -8 34 -11 34 -8 0 4 6 2 13 -4 11
-9 29 -14 112 -29 17 -3 35 -9 40 -12 6 -4 20 -6 33 -5 12 0 22 -2 22 -6 0 -4
6 -7 13 -7 6 -1 38 -8 71 -17 53 -15 349 -16 3288 -14 2947 3 3230 4 3238 19
6 11 21 15 45 14 19 -2 35 2 35 7 0 5 4 7 9 3 5 -3 12 -1 16 5 3 5 19 10 36
10 16 0 29 3 29 8 0 4 13 8 28 9 15 1 41 7 57 14 17 7 32 13 35 13 3 1 11 5
18 9 6 5 12 5 12 0 0 -4 5 0 11 11 8 13 13 15 19 6 5 -8 11 -7 23 4 8 9 18 16
21 16 3 0 43 18 88 39 46 22 87 40 92 39 5 0 12 6 17 14 5 7 12 13 16 13 4 1
18 6 29 13 12 6 24 8 28 5 3 -3 6 -2 6 4 0 6 22 25 49 42 26 17 61 42 77 56
15 13 31 22 35 19 4 -2 10 3 13 11 3 8 10 14 15 13 5 -2 24 13 43 32 18 20 49
47 68 60 19 14 51 41 72 62 20 20 39 34 42 31 3 -4 6 1 6 10 0 10 5 17 10 17
6 0 10 7 10 16 0 8 3 13 8 11 4 -3 18 12 31 34 14 21 27 37 29 34 5 -5 39 37
75 93 15 23 32 42 37 42 6 0 10 6 10 14 0 7 11 25 25 40 13 14 25 29 25 31 0
3 0 10 0 15 0 6 9 19 20 30 11 11 21 26 22 32 2 7 9 19 16 27 7 7 11 20 8 27
-3 8 1 14 9 14 14 0 19 11 16 36 -1 7 6 14 14 18 9 3 14 10 11 15 -3 5 0 11 8
14 7 3 19 26 26 51 7 25 18 50 26 56 7 6 11 21 8 33 -2 11 1 24 7 28 6 3 11
12 12 20 2 8 5 19 9 24 3 6 14 37 23 70 26 84 26 88 26 107 0 10 5 18 12 18 6
0 2 7 -9 15 -10 8 -14 15 -8 15 6 0 10 14 9 30 -1 17 2 30 7 30 4 0 7 3 6 8
-1 4 3 16 9 27 6 11 9 28 8 38 -2 9 0 17 3 17 5 0 7 6042 2 6143 -1 11 -6 15
-13 10 -9 -5 -9 -3 0 8 7 9 8 20 3 29 -5 8 -6 19 -2 25 11 17 11 35 1 35 -6 0
-8 4 -4 9 3 5 0 13 -6 17 -8 4 -7 9 2 15 8 5 9 9 3 9 -6 0 -10 14 -9 30 1 17
-2 30 -6 30 -8 0 -7 20 4 36 3 6 3 14 0 18 -10 10 -13 32 -17 141 -2 60 -11
118 -21 145 -9 25 -18 50 -19 57 -1 7 -5 16 -9 19 -4 4 -7 15 -7 25 0 9 -5 19
-10 21 -6 2 -12 13 -13 26 0 12 -5 22 -9 22 -4 0 -8 9 -8 20 0 11 -4 20 -8 20
-7 0 -33 53 -36 75 -1 6 -8 9 -16 7 -11 -3 -11 0 0 12 9 12 9 16 1 16 -7 0
-10 4 -6 9 3 5 1 12 -4 16 -6 3 -8 12 -4 20 3 8 0 15 -7 15 -11 0 -43 26 -39
32 7 11 -16 47 -36 58 -14 7 -24 18 -23 24 3 16 -33 86 -44 86 -5 0 -6 5 -3
10 3 6 3 10 -2 10 -11 0 -59 71 -55 82 1 5 -10 13 -24 18 -16 7 -24 16 -21 24
6 14 -15 40 -25 31 -2 -3 -11 7 -19 22 -19 37 -43 60 -57 55 -7 -2 -12 1 -12
8 0 6 -4 8 -10 5 -5 -3 -10 1 -10 9 0 9 -5 16 -11 16 -5 0 -8 4 -4 9 3 5 -11
15 -30 21 -20 7 -41 23 -50 38 -8 15 -14 24 -15 20 0 -6 -22 13 -87 75 -12 11
-30 22 -40 23 -10 2 -19 8 -21 14 -2 5 -8 8 -13 4 -5 -3 -9 -1 -9 5 0 11 -50
64 -50 53 0 -4 -5 1 -11 11 -5 9 -18 17 -27 17 -10 0 -24 6 -31 13 -11 10 -13
9 -7 -3 4 -8 1 -7 -8 4 -8 10 -19 16 -24 13 -4 -3 -15 3 -22 14 -8 10 -21 19
-30 19 -9 0 -22 9 -30 20 -8 11 -20 20 -27 20 -7 0 -13 5 -13 11 0 7 -11 9
-26 6 -16 -3 -28 0 -31 9 -3 8 -18 14 -34 14 -16 0 -29 5 -29 12 0 6 -3 9 -6
5 -4 -3 -23 2 -44 13 -21 11 -40 16 -44 13 -3 -3 -12 -1 -20 6 -8 6 -22 14
-32 16 -11 2 -50 15 -89 29 -38 13 -92 27 -120 30 -71 7 -108 16 -121 27 -6 5
-40 9 -75 10 -35 1 -68 4 -72 6 -5 3 -70 6 -145 8 -75 2 -137 4 -137 4 0 1
-1322 3 -2938 4 -1615 1 -2937 -1 -2937 -4z m7835 -1169 c3 -5 1 -10 -4 -10
-6 0 -11 5 -11 10 0 6 2 10 4 10 3 0 8 -4 11 -10z"/>
</g>
</svg>
